<svg width="556" height="38" viewBox="0 0 556 38" fill="none" xmlns="http://www.w3.org/2000/svg">
<path id="4washingtonbr@gmail.com" d="M26.1144 31.64H20.5144V39H17.6344V31.64H1.83438V29.56L16.6744 11H19.8744L5.55438 29.08H17.7144V22.6H20.5144V29.08H26.1144V31.64ZM60.9338 17.96L52.9738 39H50.2938L43.6538 21.76L37.0138 39H34.3338L26.4138 17.96H29.1338L35.7338 35.84L42.4938 17.96H44.9338L51.6538 35.84L58.3338 17.96H60.9338ZM71.945 17.8C74.6917 17.8 76.7983 18.4933 78.265 19.88C79.7317 21.24 80.465 23.2667 80.465 25.96V39H77.745V35.72C77.105 36.8133 76.1583 37.6667 74.905 38.28C73.6783 38.8933 72.2117 39.2 70.505 39.2C68.1583 39.2 66.2917 38.64 64.905 37.52C63.5183 36.4 62.825 34.92 62.825 33.08C62.825 31.2933 63.465 29.8533 64.745 28.76C66.0517 27.6667 68.1183 27.12 70.945 27.12H77.625V25.84C77.625 24.0267 77.1183 22.6533 76.105 21.72C75.0917 20.76 73.6117 20.28 71.665 20.28C70.3317 20.28 69.0517 20.5067 67.825 20.96C66.5983 21.3867 65.545 21.9867 64.665 22.76L63.385 20.64C64.4517 19.7333 65.7317 19.04 67.225 18.56C68.7183 18.0533 70.2917 17.8 71.945 17.8ZM70.945 36.96C72.545 36.96 73.9183 36.6 75.065 35.88C76.2117 35.1333 77.065 34.0667 77.625 32.68V29.24H71.025C67.425 29.24 65.625 30.4933 65.625 33C65.625 34.2267 66.0917 35.2 67.025 35.92C67.9583 36.6133 69.265 36.96 70.945 36.96ZM93.8188 39.2C92.1121 39.2 90.4721 38.96 88.8988 38.48C87.3521 37.9733 86.1388 37.3467 85.2588 36.6L86.5388 34.36C87.4188 35.0533 88.5254 35.6267 89.8588 36.08C91.1921 36.5067 92.5788 36.72 94.0188 36.72C95.9388 36.72 97.3521 36.4267 98.2588 35.84C99.1921 35.2267 99.6588 34.3733 99.6588 33.28C99.6588 32.5067 99.4054 31.9067 98.8988 31.48C98.3921 31.0267 97.7521 30.6933 96.9788 30.48C96.2054 30.24 95.1788 30.0133 93.8988 29.8C92.1921 29.48 90.8188 29.16 89.7788 28.84C88.7388 28.4933 87.8454 27.92 87.0988 27.12C86.3788 26.32 86.0188 25.2133 86.0188 23.8C86.0188 22.04 86.7521 20.6 88.2188 19.48C89.6854 18.36 91.7254 17.8 94.3388 17.8C95.6988 17.8 97.0588 17.9867 98.4188 18.36C99.7788 18.7067 100.899 19.1733 101.779 19.76L100.539 22.04C98.8054 20.84 96.7388 20.24 94.3388 20.24C92.5254 20.24 91.1521 20.56 90.2188 21.2C89.3121 21.84 88.8588 22.68 88.8588 23.72C88.8588 24.52 89.1121 25.16 89.6188 25.64C90.1521 26.12 90.8054 26.48 91.5788 26.72C92.3521 26.9333 93.4188 27.16 94.7787 27.4C96.4588 27.72 97.8054 28.04 98.8188 28.36C99.8321 28.68 100.699 29.2267 101.419 30C102.139 30.7733 102.499 31.84 102.499 33.2C102.499 35.04 101.725 36.5067 100.179 37.6C98.6588 38.6667 96.5388 39.2 93.8188 39.2ZM118.469 17.8C121.109 17.8 123.202 18.5733 124.749 20.12C126.322 21.64 127.109 23.8667 127.109 26.8V39H124.269V27.08C124.269 24.8933 123.722 23.2267 122.629 22.08C121.536 20.9333 119.976 20.36 117.949 20.36C115.682 20.36 113.882 21.04 112.549 22.4C111.242 23.7333 110.589 25.5867 110.589 27.96V39H107.749V9.32H110.589V21.64C111.362 20.4133 112.429 19.4667 113.789 18.8C115.149 18.1333 116.709 17.8 118.469 17.8ZM134.819 17.96H137.659V39H134.819V17.96ZM136.259 13.36C135.673 13.36 135.179 13.16 134.779 12.76C134.379 12.36 134.179 11.88 134.179 11.32C134.179 10.7867 134.379 10.32 134.779 9.92C135.179 9.52 135.673 9.32 136.259 9.32C136.846 9.32 137.339 9.52 137.739 9.92C138.139 10.2933 138.339 10.7467 138.339 11.28C138.339 11.8667 138.139 12.36 137.739 12.76C137.339 13.16 136.846 13.36 136.259 13.36ZM156.282 17.8C158.922 17.8 161.015 18.5733 162.562 20.12C164.135 21.64 164.922 23.8667 164.922 26.8V39H162.082V27.08C162.082 24.8933 161.535 23.2267 160.442 22.08C159.348 20.9333 157.788 20.36 155.762 20.36C153.495 20.36 151.695 21.04 150.362 22.4C149.055 23.7333 148.402 25.5867 148.402 27.96V39H145.562V17.96H148.282V21.84C149.055 20.56 150.122 19.5733 151.482 18.88C152.868 18.16 154.468 17.8 156.282 17.8ZM192.19 17.96V36.44C192.19 40.0133 191.31 42.6533 189.55 44.36C187.817 46.0933 185.19 46.96 181.67 46.96C179.723 46.96 177.87 46.6667 176.11 46.08C174.377 45.52 172.963 44.7333 171.87 43.72L173.31 41.56C174.323 42.4667 175.55 43.1733 176.99 43.68C178.457 44.1867 179.99 44.44 181.59 44.44C184.257 44.44 186.217 43.8133 187.47 42.56C188.723 41.3333 189.35 39.4133 189.35 36.8V34.12C188.47 35.4533 187.31 36.4667 185.87 37.16C184.457 37.8533 182.883 38.2 181.15 38.2C179.177 38.2 177.377 37.7733 175.75 36.92C174.15 36.04 172.883 34.8267 171.95 33.28C171.043 31.7067 170.59 29.9333 170.59 27.96C170.59 25.9867 171.043 24.2267 171.95 22.68C172.883 21.1333 174.15 19.9333 175.75 19.08C177.35 18.2267 179.15 17.8 181.15 17.8C182.937 17.8 184.55 18.16 185.99 18.88C187.43 19.6 188.59 20.64 189.47 22V17.96H192.19ZM181.43 35.68C182.95 35.68 184.323 35.36 185.55 34.72C186.777 34.0533 187.723 33.1333 188.39 31.96C189.083 30.7867 189.43 29.4533 189.43 27.96C189.43 26.4667 189.083 25.1467 188.39 24C187.723 22.8267 186.777 21.92 185.55 21.28C184.35 20.6133 182.977 20.28 181.43 20.28C179.91 20.28 178.537 20.6 177.31 21.24C176.11 21.88 175.163 22.7867 174.47 23.96C173.803 25.1333 173.47 26.4667 173.47 27.96C173.47 29.4533 173.803 30.7867 174.47 31.96C175.163 33.1333 176.11 34.0533 177.31 34.72C178.537 35.36 179.91 35.68 181.43 35.68ZM211.212 37.72C210.679 38.2 210.012 38.5733 209.212 38.84C208.439 39.08 207.625 39.2 206.772 39.2C204.799 39.2 203.279 38.6667 202.212 37.6C201.145 36.5333 200.612 35.0267 200.612 33.08V20.36H196.852V17.96H200.612V13.36H203.452V17.96H209.852V20.36H203.452V32.92C203.452 34.1733 203.759 35.1333 204.372 35.8C205.012 36.44 205.919 36.76 207.092 36.76C207.679 36.76 208.239 36.6667 208.772 36.48C209.332 36.2933 209.812 36.0267 210.212 35.68L211.212 37.72ZM224.24 39.2C222.213 39.2 220.386 38.7467 218.76 37.84C217.133 36.9067 215.853 35.6267 214.92 34C213.986 32.3733 213.52 30.5333 213.52 28.48C213.52 26.4267 213.986 24.5867 214.92 22.96C215.853 21.3333 217.133 20.0667 218.76 19.16C220.386 18.2533 222.213 17.8 224.24 17.8C226.266 17.8 228.093 18.2533 229.72 19.16C231.346 20.0667 232.613 21.3333 233.52 22.96C234.453 24.5867 234.92 26.4267 234.92 28.48C234.92 30.5333 234.453 32.3733 233.52 34C232.613 35.6267 231.346 36.9067 229.72 37.84C228.093 38.7467 226.266 39.2 224.24 39.2ZM224.24 36.68C225.733 36.68 227.066 36.3467 228.24 35.68C229.44 34.9867 230.373 34.0133 231.04 32.76C231.706 31.5067 232.04 30.08 232.04 28.48C232.04 26.88 231.706 25.4533 231.04 24.2C230.373 22.9467 229.44 21.9867 228.24 21.32C227.066 20.6267 225.733 20.28 224.24 20.28C222.746 20.28 221.4 20.6267 220.2 21.32C219.026 21.9867 218.093 22.9467 217.4 24.2C216.733 25.4533 216.4 26.88 216.4 28.48C216.4 30.08 216.733 31.5067 217.4 32.76C218.093 34.0133 219.026 34.9867 220.2 35.68C221.4 36.3467 222.746 36.68 224.24 36.68ZM251.438 17.8C254.078 17.8 256.171 18.5733 257.718 20.12C259.291 21.64 260.078 23.8667 260.078 26.8V39H257.238V27.08C257.238 24.8933 256.691 23.2267 255.598 22.08C254.504 20.9333 252.944 20.36 250.918 20.36C248.651 20.36 246.851 21.04 245.518 22.4C244.211 23.7333 243.558 25.5867 243.558 27.96V39H240.718V17.96H243.438V21.84C244.211 20.56 245.278 19.5733 246.638 18.88C248.024 18.16 249.624 17.8 251.438 17.8ZM278.628 17.8C280.601 17.8 282.388 18.2533 283.988 19.16C285.588 20.04 286.841 21.2933 287.748 22.92C288.655 24.5467 289.108 26.4 289.108 28.48C289.108 30.56 288.655 32.4133 287.748 34.04C286.841 35.6667 285.588 36.9333 283.988 37.84C282.388 38.7467 280.601 39.2 278.628 39.2C276.868 39.2 275.281 38.8267 273.868 38.08C272.481 37.3333 271.361 36.2533 270.508 34.84V39H267.788V9.32H270.628V21.96C271.508 20.6 272.628 19.5733 273.988 18.88C275.375 18.16 276.921 17.8 278.628 17.8ZM278.428 36.68C279.895 36.68 281.228 36.3467 282.428 35.68C283.628 34.9867 284.561 34.0133 285.228 32.76C285.921 31.5067 286.268 30.08 286.268 28.48C286.268 26.88 285.921 25.4533 285.228 24.2C284.561 22.9467 283.628 21.9867 282.428 21.32C281.228 20.6267 279.895 20.28 278.428 20.28C276.935 20.28 275.588 20.6267 274.388 21.32C273.215 21.9867 272.281 22.9467 271.588 24.2C270.921 25.4533 270.588 26.88 270.588 28.48C270.588 30.08 270.921 31.5067 271.588 32.76C272.281 34.0133 273.215 34.9867 274.388 35.68C275.588 36.3467 276.935 36.68 278.428 36.68ZM297.618 22.08C298.284 20.6667 299.271 19.6 300.578 18.88C301.911 18.16 303.551 17.8 305.498 17.8V20.56L304.818 20.52C302.604 20.52 300.871 21.2 299.618 22.56C298.364 23.92 297.738 25.8267 297.738 28.28V39H294.898V17.96H297.618V22.08ZM326.698 10.76C330.271 10.76 333.458 11.5067 336.258 13C339.084 14.4667 341.284 16.5467 342.858 19.24C344.431 21.9067 345.218 24.96 345.218 28.4C345.218 31.7867 344.631 34.44 343.458 36.36C342.284 38.2533 340.658 39.2 338.578 39.2C337.271 39.2 336.204 38.8133 335.378 38.04C334.578 37.2667 334.138 36.2 334.058 34.84C333.258 36.2267 332.164 37.3067 330.778 38.08C329.391 38.8267 327.818 39.2 326.058 39.2C324.191 39.2 322.498 38.76 320.978 37.88C319.484 36.9733 318.298 35.7333 317.418 34.16C316.564 32.5867 316.138 30.8133 316.138 28.84C316.138 26.8667 316.564 25.1067 317.418 23.56C318.298 21.9867 319.484 20.76 320.978 19.88C322.498 19 324.191 18.56 326.058 18.56C327.764 18.56 329.298 18.9333 330.658 19.68C332.044 20.4 333.151 21.4267 333.978 22.76V18.72H336.578V33.88C336.578 34.9467 336.804 35.72 337.258 36.2C337.711 36.68 338.311 36.92 339.058 36.92C340.311 36.92 341.298 36.1733 342.018 34.68C342.764 33.1867 343.138 31.1067 343.138 28.44C343.138 25.3467 342.444 22.6267 341.058 20.28C339.671 17.9067 337.724 16.0667 335.218 14.76C332.738 13.4533 329.898 12.8 326.698 12.8C323.471 12.8 320.604 13.48 318.098 14.84C315.618 16.1733 313.684 18.0667 312.298 20.52C310.911 22.9467 310.218 25.72 310.218 28.84C310.218 31.96 310.898 34.7467 312.258 37.2C313.644 39.6533 315.564 41.56 318.018 42.92C320.498 44.28 323.338 44.96 326.538 44.96C327.791 44.96 329.098 44.8133 330.458 44.52C331.844 44.2267 333.098 43.7867 334.218 43.2L334.898 45.16C333.751 45.7467 332.418 46.2 330.898 46.52C329.404 46.84 327.951 47 326.538 47C322.911 47 319.698 46.2267 316.898 44.68C314.098 43.1333 311.911 40.9867 310.338 38.24C308.791 35.4667 308.018 32.3333 308.018 28.84C308.018 25.32 308.804 22.2 310.378 19.48C311.951 16.7333 314.151 14.6 316.978 13.08C319.831 11.5333 323.071 10.76 326.698 10.76ZM326.418 36.88C327.858 36.88 329.151 36.5467 330.298 35.88C331.444 35.2133 332.351 34.28 333.018 33.08C333.684 31.8533 334.018 30.44 334.018 28.84C334.018 27.2667 333.684 25.88 333.018 24.68C332.351 23.4533 331.444 22.52 330.298 21.88C329.151 21.2133 327.858 20.88 326.418 20.88C324.951 20.88 323.631 21.2133 322.458 21.88C321.311 22.5467 320.404 23.48 319.738 24.68C319.098 25.88 318.778 27.2667 318.778 28.84C318.778 30.4133 319.098 31.8133 319.738 33.04C320.404 34.24 321.311 35.1867 322.458 35.88C323.631 36.5467 324.951 36.88 326.418 36.88ZM370.706 17.96V36.44C370.706 40.0133 369.826 42.6533 368.066 44.36C366.332 46.0933 363.706 46.96 360.186 46.96C358.239 46.96 356.386 46.6667 354.626 46.08C352.892 45.52 351.479 44.7333 350.386 43.72L351.826 41.56C352.839 42.4667 354.066 43.1733 355.506 43.68C356.972 44.1867 358.506 44.44 360.106 44.44C362.772 44.44 364.732 43.8133 365.986 42.56C367.239 41.3333 367.866 39.4133 367.866 36.8V34.12C366.986 35.4533 365.826 36.4667 364.386 37.16C362.972 37.8533 361.399 38.2 359.666 38.2C357.692 38.2 355.892 37.7733 354.266 36.92C352.666 36.04 351.399 34.8267 350.466 33.28C349.559 31.7067 349.106 29.9333 349.106 27.96C349.106 25.9867 349.559 24.2267 350.466 22.68C351.399 21.1333 352.666 19.9333 354.266 19.08C355.866 18.2267 357.666 17.8 359.666 17.8C361.452 17.8 363.066 18.16 364.506 18.88C365.946 19.6 367.106 20.64 367.986 22V17.96H370.706ZM359.946 35.68C361.466 35.68 362.839 35.36 364.066 34.72C365.292 34.0533 366.239 33.1333 366.906 31.96C367.599 30.7867 367.946 29.4533 367.946 27.96C367.946 26.4667 367.599 25.1467 366.906 24C366.239 22.8267 365.292 21.92 364.066 21.28C362.866 20.6133 361.492 20.28 359.946 20.28C358.426 20.28 357.052 20.6 355.826 21.24C354.626 21.88 353.679 22.7867 352.986 23.96C352.319 25.1333 351.986 26.4667 351.986 27.96C351.986 29.4533 352.319 30.7867 352.986 31.96C353.679 33.1333 354.626 34.0533 355.826 34.72C357.052 35.36 358.426 35.68 359.946 35.68ZM404.888 17.8C407.528 17.8 409.594 18.56 411.088 20.08C412.608 21.6 413.368 23.84 413.368 26.8V39H410.528V27.08C410.528 24.8933 409.994 23.2267 408.928 22.08C407.888 20.9333 406.408 20.36 404.488 20.36C402.301 20.36 400.581 21.04 399.328 22.4C398.074 23.7333 397.448 25.5867 397.448 27.96V39H394.608V27.08C394.608 24.8933 394.074 23.2267 393.008 22.08C391.968 20.9333 390.474 20.36 388.528 20.36C386.368 20.36 384.648 21.04 383.368 22.4C382.114 23.7333 381.488 25.5867 381.488 27.96V39H378.648V17.96H381.368V21.8C382.114 20.52 383.154 19.5333 384.488 18.84C385.821 18.1467 387.354 17.8 389.088 17.8C390.848 17.8 392.368 18.1733 393.648 18.92C394.954 19.6667 395.928 20.7733 396.568 22.24C397.341 20.8533 398.448 19.7733 399.888 19C401.354 18.2 403.021 17.8 404.888 17.8ZM428.429 17.8C431.176 17.8 433.283 18.4933 434.749 19.88C436.216 21.24 436.949 23.2667 436.949 25.96V39H434.229V35.72C433.589 36.8133 432.643 37.6667 431.389 38.28C430.163 38.8933 428.696 39.2 426.989 39.2C424.643 39.2 422.776 38.64 421.389 37.52C420.003 36.4 419.309 34.92 419.309 33.08C419.309 31.2933 419.949 29.8533 421.229 28.76C422.536 27.6667 424.603 27.12 427.429 27.12H434.109V25.84C434.109 24.0267 433.603 22.6533 432.589 21.72C431.576 20.76 430.096 20.28 428.149 20.28C426.816 20.28 425.536 20.5067 424.309 20.96C423.083 21.3867 422.029 21.9867 421.149 22.76L419.869 20.64C420.936 19.7333 422.216 19.04 423.709 18.56C425.203 18.0533 426.776 17.8 428.429 17.8ZM427.429 36.96C429.029 36.96 430.403 36.6 431.549 35.88C432.696 35.1333 433.549 34.0667 434.109 32.68V29.24H427.509C423.909 29.24 422.109 30.4933 422.109 33C422.109 34.2267 422.576 35.2 423.509 35.92C424.443 36.6133 425.749 36.96 427.429 36.96ZM444.663 17.96H447.503V39H444.663V17.96ZM446.103 13.36C445.516 13.36 445.023 13.16 444.623 12.76C444.223 12.36 444.023 11.88 444.023 11.32C444.023 10.7867 444.223 10.32 444.623 9.92C445.023 9.52 445.516 9.32 446.103 9.32C446.69 9.32 447.183 9.52 447.583 9.92C447.983 10.2933 448.183 10.7467 448.183 11.28C448.183 11.8667 447.983 12.36 447.583 12.76C447.183 13.16 446.69 13.36 446.103 13.36ZM455.405 9.32H458.245V39H455.405V9.32ZM466.428 39.2C465.841 39.2 465.334 38.9867 464.908 38.56C464.508 38.1333 464.308 37.6133 464.308 37C464.308 36.3867 464.508 35.88 464.908 35.48C465.334 35.0533 465.841 34.84 466.428 34.84C467.014 34.84 467.521 35.0533 467.948 35.48C468.374 35.88 468.588 36.3867 468.588 37C468.588 37.6133 468.374 38.1333 467.948 38.56C467.521 38.9867 467.014 39.2 466.428 39.2ZM482.758 39.2C480.678 39.2 478.811 38.7467 477.158 37.84C475.531 36.9333 474.251 35.6667 473.318 34.04C472.385 32.3867 471.918 30.5333 471.918 28.48C471.918 26.4267 472.385 24.5867 473.318 22.96C474.251 21.3333 475.531 20.0667 477.158 19.16C478.811 18.2533 480.678 17.8 482.758 17.8C484.571 17.8 486.185 18.16 487.598 18.88C489.038 19.5733 490.171 20.6 490.998 21.96L488.878 23.4C488.185 22.36 487.305 21.5867 486.238 21.08C485.171 20.5467 484.011 20.28 482.758 20.28C481.238 20.28 479.865 20.6267 478.638 21.32C477.438 21.9867 476.491 22.9467 475.798 24.2C475.131 25.4533 474.798 26.88 474.798 28.48C474.798 30.1067 475.131 31.5467 475.798 32.8C476.491 34.0267 477.438 34.9867 478.638 35.68C479.865 36.3467 481.238 36.68 482.758 36.68C484.011 36.68 485.171 36.4267 486.238 35.92C487.305 35.4133 488.185 34.64 488.878 33.6L490.998 35.04C490.171 36.4 489.038 37.44 487.598 38.16C486.158 38.8533 484.545 39.2 482.758 39.2ZM504.826 39.2C502.799 39.2 500.972 38.7467 499.346 37.84C497.719 36.9067 496.439 35.6267 495.506 34C494.572 32.3733 494.106 30.5333 494.106 28.48C494.106 26.4267 494.572 24.5867 495.506 22.96C496.439 21.3333 497.719 20.0667 499.346 19.16C500.972 18.2533 502.799 17.8 504.826 17.8C506.852 17.8 508.679 18.2533 510.306 19.16C511.932 20.0667 513.199 21.3333 514.106 22.96C515.039 24.5867 515.506 26.4267 515.506 28.48C515.506 30.5333 515.039 32.3733 514.106 34C513.199 35.6267 511.932 36.9067 510.306 37.84C508.679 38.7467 506.852 39.2 504.826 39.2ZM504.826 36.68C506.319 36.68 507.652 36.3467 508.826 35.68C510.026 34.9867 510.959 34.0133 511.626 32.76C512.292 31.5067 512.626 30.08 512.626 28.48C512.626 26.88 512.292 25.4533 511.626 24.2C510.959 22.9467 510.026 21.9867 508.826 21.32C507.652 20.6267 506.319 20.28 504.826 20.28C503.332 20.28 501.986 20.6267 500.786 21.32C499.612 21.9867 498.679 22.9467 497.986 24.2C497.319 25.4533 496.986 26.88 496.986 28.48C496.986 30.08 497.319 31.5067 497.986 32.76C498.679 34.0133 499.612 34.9867 500.786 35.68C501.986 36.3467 503.332 36.68 504.826 36.68ZM547.544 17.8C550.184 17.8 552.25 18.56 553.744 20.08C555.264 21.6 556.024 23.84 556.024 26.8V39H553.184V27.08C553.184 24.8933 552.65 23.2267 551.584 22.08C550.544 20.9333 549.064 20.36 547.144 20.36C544.957 20.36 543.237 21.04 541.984 22.4C540.73 23.7333 540.104 25.5867 540.104 27.96V39H537.264V27.08C537.264 24.8933 536.73 23.2267 535.664 22.08C534.624 20.9333 533.13 20.36 531.184 20.36C529.024 20.36 527.304 21.04 526.024 22.4C524.77 23.7333 524.144 25.5867 524.144 27.96V39H521.304V17.96H524.024V21.8C524.77 20.52 525.81 19.5333 527.144 18.84C528.477 18.1467 530.01 17.8 531.744 17.8C533.504 17.8 535.024 18.1733 536.304 18.92C537.61 19.6667 538.584 20.7733 539.224 22.24C539.997 20.8533 541.104 19.7733 542.544 19C544.01 18.2 545.677 17.8 547.544 17.8Z" transform="translate(-1 -9)" fill="black"/>
</svg>
